inDegrees=no
num_controls=7
num_derivatives=13
num_iterations=204
num_multipliers=7
num_parameters=0
num_slacks=7
num_states=26
objective=1.195785
objective_accelerations=0.165891
objective_balance=0.010901
objective_effort=0.073469
objective_height=0.940436
objective_ligament=0.005089
solver_duration=2223.590068
status=Solve_Succeeded
success=true
DataType=double
version=3
OpenSimVersion=4.5
endheader
time	/jointset/ground_pelvis/pelvis_tilt/value	/jointset/ground_pelvis/pelvis_tx/value	/jointset/ground_pelvis/pelvis_ty/value	/jointset/hip_r/hip_flexion_r/value	/jointset/hip_r/hip_adduction_r/value	/jointset/hip_r/hip_rotation_r/value	/jointset/back/lumbar_extension/value	/jointset/patellofemoral_r/patellar_flexion_r/value	/jointset/knee_r/knee_flexion_r/value	/jointset/knee_r/knee_adduction_r/value	/jointset/knee_r/knee_rotation_r/value	/jointset/ankle_r/ankle_angle_r/value	/jointset/subtalar_r/subtalar_angle_r/value	/jointset/ground_pelvis/pelvis_tilt/speed	/jointset/ground_pelvis/pelvis_tx/speed	/jointset/ground_pelvis/pelvis_ty/speed	/jointset/hip_r/hip_flexion_r/speed	/jointset/hip_r/hip_adduction_r/speed	/jointset/hip_r/hip_rotation_r/speed	/jointset/back/lumbar_extension/speed	/jointset/patellofemoral_r/patellar_flexion_r/speed	/jointset/knee_r/knee_flexion_r/speed	/jointset/knee_r/knee_adduction_r/speed	/jointset/knee_r/knee_rotation_r/speed	/jointset/ankle_r/ankle_angle_r/speed	/jointset/subtalar_r/subtalar_angle_r/speed	/forceset/tau_hip_flexion_r	/forceset/tau_hip_adduction_r	/forceset/tau_hip_rotation_r	/forceset/tau_knee_flexion_r	/forceset/tau_ankle_angle_r	/forceset/tau_subtalar_angle_r	/forceset/tau_lumbar_extension	lambda_cid13_p0	lambda_cid14_p0	lambda_cid14_p1	lambda_cid14_p2	lambda_cid14_p3	lambda_cid14_p4	lambda_cid14_p5	/jointset/ground_pelvis/pelvis_tilt/accel	/jointset/ground_pelvis/pelvis_tx/accel	/jointset/ground_pelvis/pelvis_ty/accel	/jointset/hip_r/hip_flexion_r/accel	/jointset/hip_r/hip_adduction_r/accel	/jointset/hip_r/hip_rotation_r/accel	/jointset/back/lumbar_extension/accel	/jointset/patellofemoral_r/patellar_flexion_r/accel	/jointset/knee_r/knee_flexion_r/accel	/jointset/knee_r/knee_adduction_r/accel	/jointset/knee_r/knee_rotation_r/accel	/jointset/ankle_r/ankle_angle_r/accel	/jointset/subtalar_r/subtalar_angle_r/accel	gamma_cid13_p0	gamma_cid14_p0	gamma_cid14_p1	gamma_cid14_p2	gamma_cid14_p3	gamma_cid14_p4	gamma_cid14_p5
1	-0.1272171604453288	-0.04131454397823255	0.3634832751457009	2.181661406478831	-0.2283769519386983	0.05574509038235877	-0.4363270900216596	2.181661365292626	2.181661365292871	-0.1733390173171753	0.1584362736613088	0.3476352092109086	0.08181792283078979	-0.01182555508693896	-0.0004401533798699214	0.004029798837810202	-0.005911376904382072	0.003676496938073193	-0.001441674088630098	-0.0002097491110216198	-0.01223219895494625	-0.01223219895495002	-0.0009415931613481345	-0.006944614445918861	0.005712601732540706	0.007444853319724486	-0.1165684718161662	-0.04491540578208018	-0.04397271880875189	-0.5916687278826547	0.2213978929688629	-0.01677720859298997	0.1794250990467553	-0.02632865628340217	22.85463727734135	-6.698550875530449	5.427384523455897	10.68045879994286	-738.0415697060993	61.88514566353094	-1.160914858271948	-0.429339605166795	0.6766970803996503	-1.067349336031845	0.1398067563663513	-0.859116675403345	0.05519387157740057	-2.378137227019093	-2.37813722701928	-0.27332417099862	-0.4637184222842391	-0.2506352600279204	0.1425696527257032	3.72161295930286e-09	-4.805482024110678e-09	-5.381400678813242e-10	7.947691144213014e-09	2.591756749757714e-08	1.209904796922969e-08	3.234175432868949e-08
1.01	-0.1273927005334775	-0.04134126519287736	0.3635599155810151	2.181540334244788	-0.2283328405254527	0.05568716414937866	-0.436327459774765	2.181413779701298	2.181413779701433	-0.1733613379643394	0.1583430836612764	0.3476812178672028	0.08190051765833326	-0.02325867193282629	-0.004990904339388511	0.01154001611879766	-0.01907648215069891	0.005144825382619151	-0.01022763343449877	8.920701360280302e-05	-0.03792090517043791	-0.03792090517043227	-0.003447525511677923	-0.01169215889112805	0.003591072670058253	0.009108523252406239	-0.1211229868115112	-0.0446102937979748	-0.04433650245497026	-0.598029932160808	0.2198204129905449	-0.01686302742289837	0.1836782887890446	-0.02626274366692846	21.74006954265693	-6.979205763314525	5.527219971495773	13.40042542796785	-746.330118500024	62.42916951197864	-1.130937480292895	-0.4809407913995785	0.8244553136574648	-1.557099304617808	0.1502065739322007	-0.9009399356559231	0.01025776077105287	-2.759638003740969	-2.759638003739455	-0.2279863375325	-0.4800800332215125	-0.1776257976799892	0.18343168269283	1.392723741416793e-08	-2.729652716670464e-08	1.063844500559211e-08	1.64606374696369e-08	1.203880248113146e-07	5.990554439072087e-08	1.452843105979585e-07
1.02	-0.1276818572666049	-0.04141609350712817	0.3637189124414809	2.181264409321105	-0.2282740736906748	0.05553885744863941	-0.4363262377109682	2.18089022691083	2.18089022691083	-0.1734064696491178	0.1582024567012638	0.3477090684192076	0.08200078238903426	-0.03454888408053787	-0.0100615733010659	0.02050108386818666	-0.036881914824456	0.006607581244512305	-0.01951776763946033	0.0001086142528836396	-0.06742563878300722	-0.06742563878299625	-0.005503800681298528	-0.01643200643962921	0.002080980874707865	0.01097883395122536	-0.1256775018067804	-0.04430518181388067	-0.04470028610113713	-0.6043911364389659	0.2182429330122041	-0.0169488462528319	0.1879314785313964	-0.02620771777843155	20.62654035134561	-7.265645849144877	5.634793643882569	16.16637989029343	-754.5623748454927	62.94400585828136	-1.132333918636862	-0.5333232055985415	0.9668671740799388	-1.995414821519792	0.1386922398357666	-0.9599516472219446	-0.0007159054911215186	-3.141342706434588	-3.141342706435585	-0.1833927348567952	-0.4621790429426033	-0.1283478066015183	0.1838978059531397	1.525136897109381e-08	-2.668919075011186e-08	1.777177483467217e-08	2.94526703134209e-08	1.225238938313467e-07	5.72949071307248e-08	1.714384344621807e-07
1.03	-0.1280829733548537	-0.04154390826507472	0.3639744005096368	2.180788103286444	-0.228200692913814	0.05529582006337735	-0.4363256396575404	2.180053844102587	2.180053844102617	-0.1734696650663229	0.1580146737552915	0.3477251581429228	0.08212088602337461	-0.04562674807418184	-0.01555549760288492	0.03080018655943833	-0.05905874941301512	0.008061417410608234	-0.0291578844562636	2.309721887213073e-05	-0.1003523580958588	-0.1003523580958377	-0.007078726993757254	-0.02111425728747553	0.001260716627025732	0.01307411678998589	-0.1302650140930247	-0.0441261756130996	-0.04495396220573759	-0.6092967477858185	0.2166957257239969	-0.01691513578454786	0.1921842439776202	-0.02611284247311872	19.62792983603472	-7.466746253116471	5.713562282420916	18.26265645358377	-761.657298014239	63.39402067845187	-1.088370064921613	-0.5655201888741773	1.091991151143979	-2.430732140027903	0.1476641057629908	-0.9762649423663866	-0.01065448326829371	-3.443555132696626	-3.443555132694498	-0.1360712247559472	-0.4696837253641884	-0.04030891014491401	0.2271868635970914	1.648487304946923e-08	-2.584615656250684e-08	2.486384695717675e-08	4.249040812167799e-08	1.237175731749118e-07	5.416980932295815e-08	1.967069620773714e-07
1.04	-0.1285934395680819	-0.04172828089531953	0.3643389914716044	2.180069646033384	-0.2281129868151394	0.054954336861256	-0.4363255337506564	2.178873150383419	2.178873150383486	-0.1735469154757442	0.1577803811768983	0.3477367565889028	0.08226291115425451	-0.05641890907556223	-0.0213731477607171	0.04232166263058189	-0.08531215850172762	0.009472645607369708	-0.03920693101134226	1.018494838616533e-05	-0.1362878209681608	-0.1362878209681259	-0.008314799118834383	-0.02573393292166444	0.001182725327610003	0.01536313325913135	-0.1348525263792903	-0.04394716941233399	-0.04520763831026735	-0.6142023591326756	0.2151485184357891	-0.01688142531628808	0.1964370094238193	-0.02603001280125615	18.63148108210724	-7.673696914065391	5.80037851662046	20.4035892076961	-768.6770955732039	63.81324910613692	-1.075193320184202	-0.5980683768011565	1.211341850058321	-2.810729721550441	0.1301706459688484	-1.041737594877043	0.01380504721428017	-3.743091418324672	-3.74309141832493	-0.1156218973804794	-0.4496640002110882	0.02010678305179159	0.2226445320301	2.096086038117492e-08	-2.305720834179068e-08	3.846140868188656e-08	7.11284909243086e-08	1.255130709593264e-07	4.831724425983926e-08	2.820805170231721e-07
